<svg width="16" height="16" viewBox="0 0 16 16" fill="none" xmlns="http://www.w3.org/2000/svg">
<path d="M7.33301 1.33337C10.645 1.33337 13.333 4.02137 13.333 7.33337C13.333 10.6454 10.645 13.3334 7.33301 13.3334C4.02101 13.3334 1.33301 10.6454 1.33301 7.33337C1.33301 4.02137 4.02101 1.33337 7.33301 1.33337ZM7.33301 12C9.91101 12 11.9997 9.91137 11.9997 7.33337C11.9997 4.75471 9.91101 2.66671 7.33301 2.66671C4.75434 2.66671 2.66634 4.75471 2.66634 7.33337C2.66634 9.91137 4.75434 12 7.33301 12ZM12.9897 12.0474L14.8757 13.9327L13.9323 14.876L12.047 12.99L12.9897 12.0474Z" fill="black"/>
</svg>
